<mxfile host="app.diagrams.net" agent="Mozilla/5.0 (Windows NT 10.0; Win64; x64) AppleWebKit/537.36 (KHTML, like Gecko) Chrome/135.0.0.0 Safari/537.36 Edg/135.0.0.0" version="26.2.10">
  <diagram name="Page-1" id="qJXsmdjJy0EgPD_XHip0">
    <mxGraphModel dx="2550" dy="1264" grid="1" gridSize="10" guides="1" tooltips="1" connect="1" arrows="1" fold="1" page="1" pageScale="1" pageWidth="850" pageHeight="1100" math="0" shadow="0">
      <root>
        <mxCell id="0" />
        <mxCell id="1" parent="0" />
        <mxCell id="5-lK0yJ_A6rhtmikf1JD-1" value="Database Servers" style="whiteSpace=wrap;strokeWidth=2;" vertex="1" parent="1">
          <mxGeometry x="70" y="896" width="1754" height="128" as="geometry" />
        </mxCell>
        <mxCell id="5-lK0yJ_A6rhtmikf1JD-2" value="Application Servers" style="whiteSpace=wrap;strokeWidth=2;" vertex="1" parent="1">
          <mxGeometry x="20" y="323" width="1656" height="326" as="geometry" />
        </mxCell>
        <mxCell id="5-lK0yJ_A6rhtmikf1JD-3" value="Client: Clients" style="whiteSpace=wrap;strokeWidth=2;" vertex="1" parent="1">
          <mxGeometry x="323" y="20" width="800" height="104" as="geometry" />
        </mxCell>
        <mxCell id="5-lK0yJ_A6rhtmikf1JD-4" value="Device: Admin Console" style="whiteSpace=wrap;strokeWidth=2;" vertex="1" parent="1">
          <mxGeometry x="358" y="45" width="223" height="54" as="geometry" />
        </mxCell>
        <mxCell id="5-lK0yJ_A6rhtmikf1JD-5" value="Device: Mobile App" style="whiteSpace=wrap;strokeWidth=2;" vertex="1" parent="1">
          <mxGeometry x="631" y="45" width="196" height="54" as="geometry" />
        </mxCell>
        <mxCell id="5-lK0yJ_A6rhtmikf1JD-6" value="Device: Web Browser" style="whiteSpace=wrap;strokeWidth=2;" vertex="1" parent="1">
          <mxGeometry x="877" y="45" width="211" height="54" as="geometry" />
        </mxCell>
        <mxCell id="5-lK0yJ_A6rhtmikf1JD-7" value="Processor: Load Balancer" style="whiteSpace=wrap;strokeWidth=2;" vertex="1" parent="1">
          <mxGeometry x="606" y="196" width="239" height="54" as="geometry" />
        </mxCell>
        <mxCell id="5-lK0yJ_A6rhtmikf1JD-8" value="Processor: Payment Server&#xa;Artifact: PaymentService.jar" style="whiteSpace=wrap;strokeWidth=2;" vertex="1" parent="1">
          <mxGeometry x="55" y="522" width="260" height="102" as="geometry" />
        </mxCell>
        <mxCell id="5-lK0yJ_A6rhtmikf1JD-9" value="Processor: Schedule Server&#xa;Artifact: ScheduleService.jar" style="whiteSpace=wrap;strokeWidth=2;" vertex="1" parent="1">
          <mxGeometry x="377" y="348" width="260" height="102" as="geometry" />
        </mxCell>
        <mxCell id="5-lK0yJ_A6rhtmikf1JD-10" value="Processor: Cancellation Server&#xa;Artifact: CancellationService.jar" style="whiteSpace=wrap;strokeWidth=2;" vertex="1" parent="1">
          <mxGeometry x="1006" y="522" width="260" height="102" as="geometry" />
        </mxCell>
        <mxCell id="5-lK0yJ_A6rhtmikf1JD-11" value="Processor: Booking Server&#xa;Artifact: BookingService.jar" style="whiteSpace=wrap;strokeWidth=2;" vertex="1" parent="1">
          <mxGeometry x="998" y="348" width="260" height="102" as="geometry" />
        </mxCell>
        <mxCell id="5-lK0yJ_A6rhtmikf1JD-12" value="Processor: Auth Server&#xa;Artifact: AuthService.jar" style="whiteSpace=wrap;strokeWidth=2;" vertex="1" parent="1">
          <mxGeometry x="1380" y="348" width="260" height="102" as="geometry" />
        </mxCell>
        <mxCell id="5-lK0yJ_A6rhtmikf1JD-13" value="Processor: Logging Server&#xa;Artifact: LoggerService.jar" style="whiteSpace=wrap;strokeWidth=2;" vertex="1" parent="1">
          <mxGeometry x="810" y="722" width="260" height="102" as="geometry" />
        </mxCell>
        <mxCell id="5-lK0yJ_A6rhtmikf1JD-14" value="Database: Payment DB" style="whiteSpace=wrap;strokeWidth=2;" vertex="1" parent="1">
          <mxGeometry x="105" y="933" width="221" height="54" as="geometry" />
        </mxCell>
        <mxCell id="5-lK0yJ_A6rhtmikf1JD-15" value="Database: Train Schedule DB" style="whiteSpace=wrap;strokeWidth=2;" vertex="1" parent="1">
          <mxGeometry x="377" y="921" width="260" height="78" as="geometry" />
        </mxCell>
        <mxCell id="5-lK0yJ_A6rhtmikf1JD-16" value="Database: Cancellation DB" style="whiteSpace=wrap;strokeWidth=2;" vertex="1" parent="1">
          <mxGeometry x="778" y="933" width="249" height="54" as="geometry" />
        </mxCell>
        <mxCell id="5-lK0yJ_A6rhtmikf1JD-17" value="Database: Booking DB" style="whiteSpace=wrap;strokeWidth=2;" vertex="1" parent="1">
          <mxGeometry x="1460" y="933" width="216" height="54" as="geometry" />
        </mxCell>
        <mxCell id="5-lK0yJ_A6rhtmikf1JD-18" value="Database: User DB" style="whiteSpace=wrap;strokeWidth=2;" vertex="1" parent="1">
          <mxGeometry x="1179" y="933" width="192" height="54" as="geometry" />
        </mxCell>
        <mxCell id="5-lK0yJ_A6rhtmikf1JD-19" value="HTTPS" style="curved=1;startArrow=none;endArrow=block;exitX=0.5;exitY=1;entryX=0.04;entryY=0.01;rounded=0;" edge="1" parent="1" source="5-lK0yJ_A6rhtmikf1JD-4" target="5-lK0yJ_A6rhtmikf1JD-7">
          <mxGeometry relative="1" as="geometry">
            <Array as="points">
              <mxPoint x="469" y="160" />
            </Array>
          </mxGeometry>
        </mxCell>
        <mxCell id="5-lK0yJ_A6rhtmikf1JD-20" value="HTTPS / TCP Socket" style="curved=1;startArrow=none;endArrow=block;exitX=0.5;exitY=1;entryX=0.51;entryY=0.01;rounded=0;" edge="1" parent="1" source="5-lK0yJ_A6rhtmikf1JD-5" target="5-lK0yJ_A6rhtmikf1JD-7">
          <mxGeometry relative="1" as="geometry">
            <Array as="points">
              <mxPoint x="729" y="160" />
            </Array>
          </mxGeometry>
        </mxCell>
        <mxCell id="5-lK0yJ_A6rhtmikf1JD-21" value="HTTPS" style="curved=1;startArrow=none;endArrow=block;exitX=0.5;exitY=1;entryX=0.96;entryY=0.01;rounded=0;" edge="1" parent="1" source="5-lK0yJ_A6rhtmikf1JD-6" target="5-lK0yJ_A6rhtmikf1JD-7">
          <mxGeometry relative="1" as="geometry">
            <Array as="points">
              <mxPoint x="982" y="160" />
            </Array>
          </mxGeometry>
        </mxCell>
        <mxCell id="5-lK0yJ_A6rhtmikf1JD-22" value="HTTP REST API" style="curved=1;startArrow=none;endArrow=block;exitX=0;exitY=0.77;entryX=0.5;entryY=0;rounded=0;" edge="1" parent="1" source="5-lK0yJ_A6rhtmikf1JD-7" target="5-lK0yJ_A6rhtmikf1JD-8">
          <mxGeometry relative="1" as="geometry">
            <Array as="points">
              <mxPoint x="185" y="287" />
            </Array>
          </mxGeometry>
        </mxCell>
        <mxCell id="5-lK0yJ_A6rhtmikf1JD-23" value="HTTP REST API" style="curved=1;startArrow=none;endArrow=block;exitX=0.11;exitY=1.01;entryX=0.5;entryY=0;rounded=0;" edge="1" parent="1" source="5-lK0yJ_A6rhtmikf1JD-7" target="5-lK0yJ_A6rhtmikf1JD-9">
          <mxGeometry relative="1" as="geometry">
            <Array as="points">
              <mxPoint x="507" y="287" />
            </Array>
          </mxGeometry>
        </mxCell>
        <mxCell id="5-lK0yJ_A6rhtmikf1JD-24" value="HTTP REST API" style="curved=1;startArrow=none;endArrow=block;exitX=0.5;exitY=1.01;entryX=0;entryY=0.23;rounded=0;" edge="1" parent="1" source="5-lK0yJ_A6rhtmikf1JD-7" target="5-lK0yJ_A6rhtmikf1JD-10">
          <mxGeometry relative="1" as="geometry">
            <Array as="points">
              <mxPoint x="726" y="486" />
            </Array>
          </mxGeometry>
        </mxCell>
        <mxCell id="5-lK0yJ_A6rhtmikf1JD-25" value="HTTP REST API" style="curved=1;startArrow=none;endArrow=block;exitX=1;exitY=0.86;entryX=0.5;entryY=0;rounded=0;" edge="1" parent="1" source="5-lK0yJ_A6rhtmikf1JD-7" target="5-lK0yJ_A6rhtmikf1JD-11">
          <mxGeometry relative="1" as="geometry">
            <Array as="points">
              <mxPoint x="1128" y="287" />
            </Array>
          </mxGeometry>
        </mxCell>
        <mxCell id="5-lK0yJ_A6rhtmikf1JD-26" value="HTTP REST API" style="curved=1;startArrow=none;endArrow=block;exitX=1;exitY=0.69;entryX=0.5;entryY=0;rounded=0;" edge="1" parent="1" source="5-lK0yJ_A6rhtmikf1JD-7" target="5-lK0yJ_A6rhtmikf1JD-12">
          <mxGeometry relative="1" as="geometry">
            <Array as="points">
              <mxPoint x="1510" y="287" />
            </Array>
          </mxGeometry>
        </mxCell>
        <mxCell id="5-lK0yJ_A6rhtmikf1JD-27" value="TCP Socket" style="curved=1;startArrow=none;endArrow=block;exitX=0.34;exitY=1;entryX=0;entryY=0.36;rounded=0;" edge="1" parent="1" source="5-lK0yJ_A6rhtmikf1JD-8" target="5-lK0yJ_A6rhtmikf1JD-13">
          <mxGeometry relative="1" as="geometry">
            <Array as="points">
              <mxPoint x="123" y="649" />
              <mxPoint x="123" y="685" />
            </Array>
          </mxGeometry>
        </mxCell>
        <mxCell id="5-lK0yJ_A6rhtmikf1JD-28" value="TCP Socket" style="curved=1;startArrow=none;endArrow=block;exitX=0.34;exitY=1;entryX=0;entryY=0.28;rounded=0;" edge="1" parent="1" source="5-lK0yJ_A6rhtmikf1JD-9" target="5-lK0yJ_A6rhtmikf1JD-13">
          <mxGeometry relative="1" as="geometry">
            <Array as="points">
              <mxPoint x="434" y="486" />
              <mxPoint x="434" y="685" />
            </Array>
          </mxGeometry>
        </mxCell>
        <mxCell id="5-lK0yJ_A6rhtmikf1JD-29" value="TCP Socket" style="curved=1;startArrow=none;endArrow=block;exitX=0.19;exitY=1;entryX=0.67;entryY=0;rounded=0;" edge="1" parent="1" source="5-lK0yJ_A6rhtmikf1JD-10" target="5-lK0yJ_A6rhtmikf1JD-13">
          <mxGeometry relative="1" as="geometry">
            <Array as="points">
              <mxPoint x="1018" y="649" />
              <mxPoint x="1018" y="685" />
            </Array>
          </mxGeometry>
        </mxCell>
        <mxCell id="5-lK0yJ_A6rhtmikf1JD-30" value="TCP Socket" style="curved=1;startArrow=none;endArrow=block;exitX=0.01;exitY=1;entryX=0.43;entryY=0;rounded=0;" edge="1" parent="1" source="5-lK0yJ_A6rhtmikf1JD-11" target="5-lK0yJ_A6rhtmikf1JD-13">
          <mxGeometry relative="1" as="geometry">
            <Array as="points">
              <mxPoint x="909" y="486" />
              <mxPoint x="909" y="685" />
            </Array>
          </mxGeometry>
        </mxCell>
        <mxCell id="5-lK0yJ_A6rhtmikf1JD-31" value="TCP Socket" style="curved=1;startArrow=none;endArrow=block;exitX=0.27;exitY=1;entryX=1;entryY=0.26;rounded=0;" edge="1" parent="1" source="5-lK0yJ_A6rhtmikf1JD-12" target="5-lK0yJ_A6rhtmikf1JD-13">
          <mxGeometry relative="1" as="geometry">
            <Array as="points">
              <mxPoint x="1407" y="486" />
              <mxPoint x="1407" y="685" />
            </Array>
          </mxGeometry>
        </mxCell>
        <mxCell id="5-lK0yJ_A6rhtmikf1JD-32" value="JDBC" style="curved=1;startArrow=none;endArrow=block;exitX=0.58;exitY=1;entryX=0.5;entryY=0;rounded=0;" edge="1" parent="1" source="5-lK0yJ_A6rhtmikf1JD-8" target="5-lK0yJ_A6rhtmikf1JD-14">
          <mxGeometry relative="1" as="geometry">
            <Array as="points">
              <mxPoint x="216" y="649" />
            </Array>
          </mxGeometry>
        </mxCell>
        <mxCell id="5-lK0yJ_A6rhtmikf1JD-33" value="JDBC" style="curved=1;startArrow=none;endArrow=block;exitX=0.5;exitY=1;entryX=0.5;entryY=0;rounded=0;" edge="1" parent="1" source="5-lK0yJ_A6rhtmikf1JD-9" target="5-lK0yJ_A6rhtmikf1JD-15">
          <mxGeometry relative="1" as="geometry">
            <Array as="points" />
          </mxGeometry>
        </mxCell>
        <mxCell id="5-lK0yJ_A6rhtmikf1JD-34" value="JDBC" style="curved=1;startArrow=none;endArrow=block;exitX=0.51;exitY=1;entryX=0.9;entryY=0;rounded=0;" edge="1" parent="1" source="5-lK0yJ_A6rhtmikf1JD-10" target="5-lK0yJ_A6rhtmikf1JD-16">
          <mxGeometry relative="1" as="geometry">
            <Array as="points">
              <mxPoint x="1141" y="649" />
              <mxPoint x="1141" y="896" />
            </Array>
          </mxGeometry>
        </mxCell>
        <mxCell id="5-lK0yJ_A6rhtmikf1JD-35" value="JDBC" style="curved=1;startArrow=none;endArrow=block;exitX=0.89;exitY=1;entryX=0;entryY=0.02;rounded=0;" edge="1" parent="1" source="5-lK0yJ_A6rhtmikf1JD-11" target="5-lK0yJ_A6rhtmikf1JD-17">
          <mxGeometry relative="1" as="geometry">
            <Array as="points">
              <mxPoint x="1301" y="486" />
              <mxPoint x="1301" y="896" />
            </Array>
          </mxGeometry>
        </mxCell>
        <mxCell id="5-lK0yJ_A6rhtmikf1JD-36" value="JDBC" style="curved=1;startArrow=none;endArrow=block;exitX=0.57;exitY=1;entryX=1;entryY=0.07;rounded=0;" edge="1" parent="1" source="5-lK0yJ_A6rhtmikf1JD-12" target="5-lK0yJ_A6rhtmikf1JD-18">
          <mxGeometry relative="1" as="geometry">
            <Array as="points">
              <mxPoint x="1540" y="486" />
              <mxPoint x="1540" y="896" />
            </Array>
          </mxGeometry>
        </mxCell>
        <mxCell id="5-lK0yJ_A6rhtmikf1JD-37" value="TCP Socket" style="curved=1;startArrow=none;endArrow=block;exitX=0.5;exitY=1;entryX=0;entryY=0.16;rounded=0;" edge="1" parent="1" source="5-lK0yJ_A6rhtmikf1JD-13" target="5-lK0yJ_A6rhtmikf1JD-18">
          <mxGeometry relative="1" as="geometry">
            <Array as="points">
              <mxPoint x="940" y="896" />
            </Array>
          </mxGeometry>
        </mxCell>
        <mxCell id="5-lK0yJ_A6rhtmikf1JD-38" value="REST API" style="curved=1;startArrow=none;endArrow=block;exitX=0.75;exitY=1;entryX=0;entryY=0.29;rounded=0;" edge="1" parent="1" source="5-lK0yJ_A6rhtmikf1JD-9" target="5-lK0yJ_A6rhtmikf1JD-10">
          <mxGeometry relative="1" as="geometry">
            <Array as="points">
              <mxPoint x="616" y="486" />
            </Array>
          </mxGeometry>
        </mxCell>
        <mxCell id="5-lK0yJ_A6rhtmikf1JD-39" value="REST API" style="curved=1;startArrow=none;endArrow=block;exitX=0.69;exitY=1;entryX=1;entryY=0.26;rounded=0;" edge="1" parent="1" source="5-lK0yJ_A6rhtmikf1JD-12" target="5-lK0yJ_A6rhtmikf1JD-10">
          <mxGeometry relative="1" as="geometry">
            <Array as="points">
              <mxPoint x="1593" y="486" />
            </Array>
          </mxGeometry>
        </mxCell>
        <mxCell id="5-lK0yJ_A6rhtmikf1JD-40" value="REST API" style="curved=1;startArrow=none;endArrow=block;exitX=1;exitY=0.99;entryX=0.99;entryY=0;rounded=0;" edge="1" parent="1" source="5-lK0yJ_A6rhtmikf1JD-11" target="5-lK0yJ_A6rhtmikf1JD-10">
          <mxGeometry relative="1" as="geometry">
            <Array as="points">
              <mxPoint x="1354" y="486" />
            </Array>
          </mxGeometry>
        </mxCell>
        <mxCell id="5-lK0yJ_A6rhtmikf1JD-41" value="JDBC" style="curved=1;startArrow=none;endArrow=block;exitX=0.74;exitY=1;entryX=0;entryY=0.12;rounded=0;" edge="1" parent="1" source="5-lK0yJ_A6rhtmikf1JD-10" target="5-lK0yJ_A6rhtmikf1JD-17">
          <mxGeometry relative="1" as="geometry">
            <Array as="points">
              <mxPoint x="1229" y="649" />
              <mxPoint x="1229" y="896" />
            </Array>
          </mxGeometry>
        </mxCell>
      </root>
    </mxGraphModel>
  </diagram>
</mxfile>
